<svg width="512" height="512" viewBox="0 0 512 512" fill="none" xmlns="http://www.w3.org/2000/svg">
<path d="M130.004 512H42.455C19.0238 512 0 494.371 0 472.606V352H172.435V472.606C172.435 494.371 153.436 512 130.004 512Z" fill="#39A7FF"/>
<path d="M512 39.3935V157.551H411.179C410.482 145.19 399.476 135.393 386.004 135.393H0V39.3935C0 17.6289 18.9989 0 42.455 0H469.545C493.001 0 512 17.6289 512 39.3935Z" fill="#FF394B"/>
<path d="M512 157.528V278.134C512 299.899 493.001 317.528 469.545 317.528H0V182.134H385.98C392.927 182.134 399.251 179.524 403.808 175.295C408.365 171.067 411.179 165.199 411.179 158.752C411.179 158.337 411.179 157.944 411.154 157.528H512V157.528Z" fill="#FFBD39"/>
</svg>
